<svg width="16" height="16" viewBox="0 0 16 16" fill="none" xmlns="http://www.w3.org/2000/svg">
<g clip-path="url(#clip0_26084_257)">
<path d="M13.5624 11.4375H12.4639C12.3889 11.4375 12.3186 11.4703 12.2717 11.5281C12.1624 11.661 12.0452 11.7891 11.9217 11.911C11.4169 12.4163 10.8189 12.8191 10.1608 13.0969C9.47901 13.3849 8.74622 13.5326 8.00611 13.5313C7.25767 13.5313 6.53267 13.3844 5.85142 13.0969C5.19334 12.8191 4.59534 12.4163 4.09048 11.911C3.58473 11.4073 3.18145 10.8104 2.90298 10.1531C2.61392 9.4719 2.46861 8.74846 2.46861 8.00002C2.46861 7.25159 2.61548 6.52815 2.90298 5.8469C3.18111 5.18909 3.58111 4.5969 4.09048 4.08909C4.59986 3.58127 5.19205 3.18127 5.85142 2.90315C6.53267 2.61565 7.25767 2.46877 8.00611 2.46877C8.75455 2.46877 9.47955 2.61409 10.1608 2.90315C10.8202 3.18127 11.4124 3.58127 11.9217 4.08909C12.0452 4.21252 12.1608 4.34065 12.2717 4.4719C12.3186 4.52971 12.3905 4.56252 12.4639 4.56252H13.5624C13.6608 4.56252 13.7217 4.45315 13.667 4.37034C12.4686 2.50784 10.3717 1.27502 7.98892 1.28127C4.24517 1.29065 1.24361 4.32971 1.28111 8.06877C1.31861 11.7485 4.31548 14.7188 8.00611 14.7188C10.3827 14.7188 12.4702 13.4875 13.667 11.6297C13.7202 11.5469 13.6608 11.4375 13.5624 11.4375ZM14.9514 7.90159L12.7342 6.15159C12.6514 6.08596 12.5311 6.14534 12.5311 6.25002V7.43752H7.62486C7.55611 7.43752 7.49986 7.49377 7.49986 7.56252V8.43752C7.49986 8.50627 7.55611 8.56252 7.62486 8.56252H12.5311V9.75002C12.5311 9.85471 12.653 9.91409 12.7342 9.84846C12.7342 9.84846 14.9365 8.11015 14.9514 8.09846C14.9664 8.08677 14.9784 8.07183 14.9868 8.05477C14.9951 8.03772 14.9994 8.019 14.9994 8.00002C14.9994 7.98105 14.9951 7.96233 14.9868 7.94527C14.9784 7.92822 14.9664 7.91328 14.9514 7.90159Z" fill="#E00087"/>
</g>
<defs>
<clipPath id="clip0_26084_257">
<rect width="16" height="16" fill="white"/>
</clipPath>
</defs>
</svg>
